<svg width="100" height="100" viewBox="0 0 100 100" fill="none" xmlns="http://www.w3.org/2000/svg">
<path d="M89.2857 0H10.7143C4.79911 0 0 4.79911 0 10.7143V89.2857C0 95.2009 4.79911 100 10.7143 100H89.2857C95.2009 100 100 95.2009 100 89.2857V10.7143C100 4.79911 95.2009 0 89.2857 0ZM61.8973 85.6473C60.0223 85.9821 59.3304 84.8214 59.3304 83.8616C59.3304 82.6562 59.375 76.4955 59.375 71.5179C59.375 68.0357 58.2143 65.8259 56.8527 64.6652C65.1116 63.75 73.817 62.6116 73.817 48.3482C73.817 44.2857 72.3661 42.2545 70 39.6429C70.3795 38.683 71.6518 34.7321 69.6205 29.5982C66.5179 28.6384 59.4196 33.5938 59.4196 33.5938C56.4732 32.7679 53.2812 32.3438 50.1339 32.3438C46.9866 32.3438 43.7946 32.7679 40.8482 33.5938C40.8482 33.5938 33.75 28.6384 30.6473 29.5982C28.6161 34.7098 29.8661 38.6607 30.2679 39.6429C27.9018 42.2545 26.7857 44.2857 26.7857 48.3482C26.7857 62.5446 35.1116 63.75 43.3705 64.6652C42.2991 65.625 41.3393 67.2768 41.0045 69.6429C38.8839 70.6027 33.4598 72.2545 30.2232 66.5402C28.192 63.0134 24.5312 62.7232 24.5312 62.7232C20.9152 62.6786 24.2857 65 24.2857 65C26.6964 66.1161 28.3929 70.4018 28.3929 70.4018C30.558 77.0312 40.9152 74.7991 40.9152 74.7991C40.9152 77.9018 40.9598 82.9464 40.9598 83.8616C40.9598 84.8214 40.2902 85.9821 38.3929 85.6473C23.6607 80.7143 13.3482 66.6964 13.3482 50.3125C13.3482 29.8214 29.0179 14.2634 49.5089 14.2634C70 14.2634 86.6071 29.8214 86.6071 50.3125C86.6295 66.6964 76.6295 80.7366 61.8973 85.6473ZM40 72.0089C39.5759 72.0982 39.1741 71.9196 39.1295 71.6295C39.0848 71.2946 39.375 71.0045 39.7991 70.9152C40.2232 70.8705 40.625 71.0491 40.6696 71.3393C40.7366 71.6295 40.4464 71.9196 40 72.0089ZM37.8795 71.808C37.8795 72.0982 37.5446 72.3438 37.0982 72.3438C36.6071 72.3884 36.2723 72.1429 36.2723 71.808C36.2723 71.5179 36.6071 71.2723 37.0536 71.2723C37.4777 71.2277 37.8795 71.4732 37.8795 71.808ZM34.8214 71.5625C34.7321 71.8527 34.2857 71.9866 33.9062 71.8527C33.4821 71.7634 33.192 71.4286 33.2812 71.1384C33.3705 70.8482 33.817 70.7143 34.1964 70.8036C34.6429 70.9375 34.933 71.2723 34.8214 71.5625ZM32.0759 70.3571C31.875 70.6027 31.4509 70.558 31.1161 70.2232C30.7812 69.933 30.692 69.5089 30.9152 69.308C31.1161 69.0625 31.5402 69.1071 31.875 69.442C32.1652 69.7321 32.2768 70.1786 32.0759 70.3571ZM30.0446 68.3259C29.8438 68.4598 29.4643 68.3259 29.2187 67.9911C28.9732 67.6562 28.9732 67.2768 29.2187 67.1205C29.4643 66.9196 29.8438 67.0759 30.0446 67.4107C30.2902 67.7455 30.2902 68.1473 30.0446 68.3259ZM28.5938 66.1607C28.3929 66.3616 28.058 66.25 27.8125 66.0268C27.567 65.7366 27.5223 65.4018 27.7232 65.2455C27.9241 65.0446 28.2589 65.1562 28.5045 65.3795C28.75 65.6696 28.7946 66.0045 28.5938 66.1607ZM27.0982 64.5089C27.0089 64.7098 26.7188 64.7545 26.4732 64.5982C26.183 64.4643 26.0491 64.2188 26.1384 64.0179C26.2277 63.8839 26.4732 63.817 26.7634 63.9286C27.0536 64.0848 27.1875 64.3304 27.0982 64.5089Z" fill="#070707"/>
</svg>
